<?xml version="1.0" standalone="no"?>
<!DOCTYPE svg PUBLIC "-//W3C//DTD SVG 20010904//EN"
 "http://www.w3.org/TR/2001/REC-SVG-20010904/DTD/svg10.dtd">
<svg version="1.0" xmlns="http://www.w3.org/2000/svg"
 width="512.000000pt" height="512.000000pt" viewBox="0 0 512.000000 512.000000"
 preserveAspectRatio="xMidYMid meet">

<g transform="translate(0.000000,512.000000) scale(0.100000,-0.100000)"
fill="#000000" stroke="none">
<path d="M2240 4289 c-324 -26 -678 -101 -957 -204 -215 -80 -516 -245 -653
-359 -307 -255 -460 -533 -460 -833 0 -93 10 -121 60 -168 l31 -30 2286 -3
c2569 -2 2330 -10 2380 75 25 43 25 48 20 166 -5 138 -32 237 -97 367 -177
352 -632 674 -1191 843 -426 129 -951 183 -1419 146z m151 -165 c46 -23 48
-62 3 -83 -64 -29 -184 2 -184 47 0 55 104 75 181 36z m575 -25 c45 -14 81
-55 68 -77 -32 -50 -204 -1 -204 59 0 37 53 44 136 18z m-1158 -75 c2 -14 -9
-32 -32 -52 -77 -67 -212 -49 -149 20 32 36 85 58 133 55 37 -2 46 -6 48 -23z
m1767 -38 c71 -30 28 -78 -73 -84 -55 -3 -72 0 -90 15 -30 24 -21 47 26 67 47
19 94 20 137 2z m-870 -128 c27 -12 29 -17 19 -43 -15 -38 -134 -70 -188 -49
-40 15 1 74 64 92 48 14 75 14 105 0z m-1458 -39 c19 -16 16 -27 -13 -54 -56
-52 -190 -55 -182 -3 8 57 145 98 195 57z m950 -28 c44 -21 67 -50 57 -75 -15
-40 -139 -34 -184 9 -36 34 -37 49 -8 69 30 21 84 20 135 -3z m1034 -30 c23
-19 23 -21 9 -47 -21 -39 -72 -66 -126 -66 -90 -2 -100 64 -15 109 54 28 101
29 132 4z m-1653 -16 c70 -30 102 -81 70 -113 -19 -19 -89 -14 -128 9 -44 26
-60 46 -60 75 0 43 53 56 118 29z m2520 -12 c45 -21 69 -58 52 -78 -36 -44
-200 11 -200 67 0 39 76 45 148 11z m-445 -67 c41 -17 70 -49 65 -73 -5 -26
-95 -30 -144 -7 -46 22 -71 58 -54 79 16 19 89 20 133 1z"/>
<path d="M317 2603 c-4 -3 -7 -56 -7 -118 l0 -111 -34 -16 c-92 -44 -207 -272
-193 -381 7 -52 52 -97 97 -97 29 0 30 -2 30 -42 0 -24 3 -60 6 -80 6 -36 6
-37 -32 -44 -77 -14 -124 -53 -124 -103 0 -14 -12 -37 -26 -52 -15 -16 -28
-43 -31 -66 -4 -34 -1 -45 24 -74 17 -19 33 -51 36 -73 8 -51 31 -83 72 -103
l35 -17 0 -113 c0 -156 27 -213 125 -266 l40 -22 2225 0 2225 0 40 22 c22 11
52 34 67 50 50 52 58 89 58 252 0 82 3 156 6 165 4 10 18 16 39 16 51 0 83 16
105 52 27 44 25 87 -5 128 -16 22 -25 47 -25 71 0 67 -53 111 -148 124 -42 6
-52 10 -48 23 2 10 7 38 11 65 6 46 7 47 41 47 25 0 44 9 72 34 35 33 37 37
37 98 0 98 -52 195 -167 312 l-89 91 3 115 3 115 -2231 3 c-1227 1 -2234 -1
-2237 -5z m1773 -313 c630 -5 1493 -13 1918 -16 l774 -7 46 -53 c97 -109 148
-225 122 -273 -14 -28 -28 -27 -188 13 -193 49 -804 164 -942 177 -193 19
-528 -5 -720 -52 -47 -12 -179 -55 -295 -97 -195 -70 -216 -76 -290 -76 -71 0
-93 5 -204 47 -240 92 -383 126 -700 167 -550 71 -970 39 -1276 -96 -156 -69
-156 -69 -166 -53 -23 34 34 194 96 268 59 69 52 68 382 64 164 -2 813 -7
1443 -13z m-1160 -630 c102 -5 232 -14 290 -21 72 -8 232 -10 509 -6 223 2
419 0 435 -4 95 -28 157 -30 257 -9 94 19 114 20 436 11 186 -6 446 -17 578
-26 197 -14 267 -15 400 -6 310 22 407 24 578 11 131 -9 194 -10 263 -1 50 6
133 12 183 12 75 1 95 -2 111 -16 38 -34 14 -64 -52 -66 -30 0 -27 -3 38 -33
75 -35 95 -59 70 -85 -13 -12 -25 -13 -80 -3 -36 7 -73 15 -83 19 -14 6 -13 2
5 -24 48 -68 7 -91 -92 -51 -129 53 -172 50 -252 -23 -34 -30 -63 -49 -79 -49
-16 0 -49 23 -96 64 -117 104 -177 107 -291 16 -76 -62 -101 -63 -212 -13 -61
28 -95 37 -136 37 -50 1 -63 -4 -139 -53 -118 -76 -131 -76 -271 -3 -174 91
-208 92 -335 12 -104 -65 -138 -67 -221 -9 -138 95 -134 93 -198 97 l-61 4
-79 -66 c-126 -105 -162 -106 -280 -6 -60 50 -106 68 -145 55 -12 -3 -48 -31
-80 -60 -99 -92 -120 -91 -257 9 -76 55 -124 73 -166 62 -13 -3 -52 -31 -88
-62 -67 -58 -114 -84 -151 -84 -14 0 -48 27 -95 75 -73 75 -73 75 -126 75 -59
0 -107 -19 -195 -76 -83 -54 -117 -52 -211 10 -88 59 -117 62 -170 18 -91 -78
-110 -87 -188 -87 -62 0 -77 3 -95 22 -30 29 -20 47 43 80 l53 27 -66 7 c-37
4 -76 12 -88 18 -43 24 -17 59 49 68 22 3 40 8 40 11 0 3 -12 19 -27 34 -46
49 -25 56 171 63 143 4 231 14 341 39 11 2 31 2 45 -1 14 -3 108 -9 210 -13z"/>
</g>
</svg>
